<svg xmlns="http://www.w3.org/2000/svg" version="1.1" width = "515" height = "515" viewBox = "-1 -1 514 514" preserveAspectRatio = "none" shape-rendering="crispEdges">
<rect x="0" y="0" width="512" height="512" style="fill:rgb(0,0,0);" />
<rect x="0.996109" y="0" width="510.00781" height="512" style="fill:rgb(0,127,0);" />
<g style="fill:rgb(0,0,0);">
 <rect x="0.996109" y="0" width="47.8132" height="81.6809"/>
 <rect x="48.8093" y="0" width="37.8521" height="9.96109"/>
 <rect x="86.6615" y="0" width="27.8911" height="3.98444"/>
 <rect x="114.553" y="0" width="173.323" height="1.99222"/>
 <rect x="379.518" y="0" width="131.486" height="1.99222"/>
 <rect x="134.475" y="1.99222" width="111.564" height="1.99222"/>
</g>
<rect x="271.938" y="1.99222" width="5.9766541" height="29.88327" style="fill:rgb(229,229,229);" />
<rect x="453.23" y="1.99222" width="5.9766846" height="7.9688721" style="fill:rgb(0,0,0);" />
<rect x="475.144" y="1.99222" width="15.937744" height="121.5253" style="fill:rgb(229,229,229);" />
<g style="fill:rgb(0,0,0);">
 <rect x="505.027" y="1.99222" width="5.97668" height="3.98444"/>
 <rect x="86.6615" y="3.98444" width="1.99222" height="3.98444"/>
 <rect x="152.405" y="3.98444" width="93.6342" height="11.9533"/>
 <rect x="507.019" y="5.97665" width="3.98444" height="3.98444"/>
 <rect x="64.7471" y="9.96109" width="23.9066" height="1.99222"/>
 <rect x="453.23" y="9.96109" width="3.98444" height="5.97665"/>
 <rect x="507.019" y="9.96109" width="3.98444" height="1.99222"/>
 <rect x="66.7393" y="11.9533" width="21.9144" height="1.99222"/>
</g>
<rect x="473.152" y="11.9533" width="17.929993" height="111.56421" style="fill:rgb(229,229,229);" />
<g style="fill:rgb(0,0,0);">
 <rect x="509.012" y="11.9533" width="1.99225" height="1.99222"/>
 <rect x="68.7315" y="13.9455" width="11.9533" height="1.99222"/>
 <rect x="82.677" y="13.9455" width="5.97665" height="33.8677"/>
</g>
<rect x="467.175" y="13.9455" width="23.906616" height="109.57199" style="fill:rgb(229,229,229);" />
<g style="fill:rgb(0,0,0);">
 <rect x="509.012" y="13.9455" width="1.99225" height="1.99222"/>
 <rect x="70.7237" y="15.9377" width="9.96109" height="1.99222"/>
 <rect x="152.405" y="15.9377" width="5.97665" height="1.99222"/>
 <rect x="453.23" y="15.9377" width="1.99225" height="7.96887"/>
</g>
<rect x="491.082" y="15.9377" width="7.9688721" height="95.626465" style="fill:rgb(229,229,229);" />
<g style="fill:rgb(0,0,0);">
 <rect x="509.012" y="15.9377" width="1.99225" height="1.99222"/>
 <rect x="72.716" y="17.93" width="7.96887" height="1.99222"/>
</g>
<rect x="248.031" y="17.93" width="15.937744" height="15.937744" style="fill:rgb(229,229,229);" />
<g style="fill:rgb(0,0,0);">
 <rect x="509.012" y="17.93" width="1.99225" height="1.99222"/>
 <rect x="74.7082" y="19.9222" width="5.97665" height="61.7588"/>
</g>
<g style="fill:rgb(229,229,229);">
 <rect x="465.183" y="19.9222" width="33.8677" height="5.97665"/>
 <rect x="499.051" y="21.9144" width="1.99219" height="89.6498"/>
 <rect x="277.914" y="29.8833" width="1.99222" height="15.9377"/>
</g>
<rect x="289.868" y="29.8833" width="33.867706" height="1.992218" style="fill:rgb(0,0,0);" />
<rect x="327.72" y="29.8833" width="11.953308" height="49.80545" style="fill:rgb(229,229,229);" />
<rect x="341.665" y="29.8833" width="29.88327" height="1.992218" style="fill:rgb(0,0,0);" />
<g style="fill:rgb(229,229,229);">
 <rect x="273.93" y="31.8755" width="13.9455" height="13.9455"/>
 <rect x="325.728" y="31.8755" width="13.9455" height="45.821"/>
 <rect x="248.031" y="33.8677" width="7.96887" height="37.8521"/>
 <rect x="259.984" y="33.8677" width="3.98444" height="29.8833"/>
 <rect x="287.875" y="33.8677" width="25.8988" height="25.8988"/>
 <rect x="313.774" y="33.8677" width="57.7743" height="13.9455"/>
 <rect x="256" y="35.8599" width="1.99222" height="25.8988"/>
</g>
<g style="fill:rgb(0,0,0);">
 <rect x="80.6848" y="37.8521" width="7.96887" height="9.96109"/>
 <rect x="152.405" y="37.8521" width="5.97665" height="1.99222"/>
</g>
<g style="fill:rgb(229,229,229);">
 <rect x="257.992" y="37.8521" width="5.97665" height="21.9144"/>
 <rect x="501.043" y="37.8521" width="3.98444" height="17.93"/>
 <rect x="271.938" y="39.8444" width="99.6109" height="5.97665"/>
 <rect x="463.191" y="39.8444" width="37.8521" height="17.93"/>
</g>
<g style="fill:rgb(0,0,0);">
 <rect x="156.389" y="43.8288" width="1.99222" height="3.98444"/>
 <rect x="154.397" y="45.821" width="3.98444" height="1.99222"/>
</g>
<rect x="273.93" y="45.821" width="3.984436" height="1.992218" style="fill:rgb(229,229,229);" />
<g style="fill:rgb(0,0,0);">
 <rect x="80.6848" y="47.8132" width="5.97665" height="3.98444"/>
 <rect x="144.436" y="47.8132" width="9.96109" height="3.98444"/>
</g>
<g style="fill:rgb(229,229,229);">
 <rect x="275.922" y="47.8132" width="1.99222" height="13.9455"/>
 <rect x="319.751" y="47.8132" width="1.99222" height="25.8988"/>
 <rect x="321.743" y="47.8132" width="51.7977" height="1.99222"/>
 <rect x="134.475" y="49.8055" width="1.99222" height="5.97665"/>
</g>
<rect x="154.397" y="49.8055" width="3.984436" height="9.9610901" style="fill:rgb(0,0,0);" />
<g style="fill:rgb(229,229,229);">
 <rect x="339.673" y="49.8055" width="1.99222" height="37.8521"/>
 <rect x="345.65" y="49.8055" width="1.99222" height="39.8444"/>
 <rect x="353.619" y="49.8055" width="19.9222" height="39.8444"/>
</g>
<g style="fill:rgb(0,0,0);">
 <rect x="80.6848" y="51.7977" width="1.99222" height="11.9533"/>
 <rect x="84.6693" y="51.7977" width="1.99222" height="1.99222"/>
</g>
<rect x="136.467" y="51.7977" width="1.992218" height="7.9688721" style="fill:rgb(229,229,229);" />
<rect x="148.42" y="51.7977" width="9.9610901" height="1.992218" style="fill:rgb(0,0,0);" />
<g style="fill:rgb(229,229,229);">
 <rect x="277.914" y="51.7977" width="1.99222" height="9.96109"/>
 <rect x="321.743" y="51.7977" width="25.8988" height="21.9144"/>
</g>
<g style="fill:rgb(0,0,0);">
 <rect x="82.677" y="53.7899" width="1.99222" height="27.8911"/>
 <rect x="86.6615" y="53.7899" width="1.99222" height="1.99222"/>
 <rect x="152.405" y="53.7899" width="5.97665" height="5.97665"/>
</g>
<g style="fill:rgb(229,229,229);">
 <rect x="271.938" y="53.7899" width="7.96887" height="7.96887"/>
 <rect x="138.459" y="55.7821" width="1.99222" height="141.447"/>
</g>
<rect x="146.428" y="55.7821" width="11.953308" height="3.984436" style="fill:rgb(0,0,0);" />
<g style="fill:rgb(229,229,229);">
 <rect x="281.899" y="55.7821" width="11.9533" height="5.97665"/>
 <rect x="313.774" y="55.7821" width="33.8677" height="13.9455"/>
</g>
<g style="fill:rgb(0,0,0);">
 <rect x="375.533" y="55.7821" width="31.8755" height="5.97665"/>
 <rect x="415.377" y="55.7821" width="27.8911" height="1.99222"/>
 <rect x="84.6693" y="57.7743" width="3.98444" height="23.9066"/>
 <rect x="144.436" y="57.7743" width="13.9455" height="1.99222"/>
</g>
<g style="fill:rgb(229,229,229);">
 <rect x="279.907" y="57.7743" width="13.9455" height="3.98444"/>
 <rect x="347.642" y="57.7743" width="25.8988" height="31.8755"/>
 <rect x="409.401" y="57.7743" width="3.98444" height="33.8677"/>
</g>
<g style="fill:rgb(0,0,0);">
 <rect x="417.37" y="57.7743" width="7.96887" height="3.98444"/>
 <rect x="425.339" y="57.7743" width="13.9456" height="1.99222"/>
 <rect x="88.6537" y="59.7665" width="1.99222" height="21.9144"/>
</g>
<g style="fill:rgb(229,229,229);">
 <rect x="140.451" y="59.7665" width="1.99222" height="137.463"/>
 <rect x="297.837" y="59.7665" width="75.7043" height="1.99222"/>
 <rect x="413.385" y="59.7665" width="1.99225" height="31.8755"/>
 <rect x="142.444" y="61.7588" width="1.99222" height="133.479"/>
 <rect x="146.428" y="61.7588" width="11.9533" height="59.7665"/>
 <rect x="301.821" y="61.7588" width="1.99222" height="1.99222"/>
 <rect x="307.798" y="61.7588" width="65.7432" height="1.99222"/>
 <rect x="427.331" y="61.7588" width="11.9533" height="9.96109"/>
</g>
<rect x="90.6459" y="63.751" width="1.992218" height="17.929962" style="fill:rgb(0,0,0);" />
<g style="fill:rgb(229,229,229);">
 <rect x="144.436" y="63.751" width="13.9455" height="57.7743"/>
 <rect x="256" y="63.751" width="5.97665" height="33.8677"/>
 <rect x="309.79" y="63.751" width="129.494" height="1.99222"/>
 <rect x="136.467" y="65.7432" width="31.8755" height="55.7821"/>
 <rect x="168.342" y="65.7432" width="95.6265" height="5.97665"/>
 <rect x="311.782" y="65.7432" width="127.502" height="3.98444"/>
</g>
<rect x="92.6381" y="67.7354" width="1.992218" height="13.945526" style="fill:rgb(0,0,0);" />
<g style="fill:rgb(229,229,229);">
 <rect x="130.49" y="67.7354" width="37.8521" height="53.7899"/>
 <rect x="263.969" y="67.7354" width="1.99222" height="37.8521"/>
 <rect x="122.521" y="69.7276" width="45.821" height="51.7977"/>
 <rect x="265.961" y="69.7276" width="29.8833" height="25.8988"/>
 <rect x="315.767" y="69.7276" width="123.518" height="1.99222"/>
 <rect x="501.043" y="69.7276" width="3.98444" height="21.9144"/>
</g>
<rect x="94.6304" y="71.7198" width="1.992218" height="11.953308" style="fill:rgb(0,0,0);" />
<g style="fill:rgb(229,229,229);">
 <rect x="118.537" y="71.7198" width="49.8054" height="49.8055"/>
 <rect x="172.327" y="71.7198" width="23.9066" height="35.8599"/>
 <rect x="198.226" y="71.7198" width="25.8988" height="35.8599"/>
 <rect x="228.109" y="71.7198" width="23.9066" height="23.9066"/>
 <rect x="254.008" y="71.7198" width="45.821" height="23.9066"/>
 <rect x="373.541" y="71.7198" width="17.93" height="17.93"/>
 <rect x="397.447" y="71.7198" width="5.97668" height="15.9377"/>
 <rect x="403.424" y="71.7198" width="21.9144" height="5.97665"/>
 <rect x="431.315" y="71.7198" width="11.9533" height="19.9222"/>
 <rect x="461.198" y="71.7198" width="43.8288" height="19.9222"/>
 <rect x="114.553" y="73.7121" width="53.7899" height="25.8988"/>
 <rect x="170.335" y="73.7121" width="25.8988" height="33.8677"/>
 <rect x="226.117" y="73.7121" width="25.8988" height="21.9144"/>
 <rect x="299.829" y="73.7121" width="3.98444" height="27.8911"/>
 <rect x="323.735" y="73.7121" width="67.7354" height="1.99222"/>
 <rect x="110.568" y="75.7043" width="135.471" height="21.9144"/>
 <rect x="252.016" y="75.7043" width="23.9066" height="21.9144"/>
 <rect x="303.813" y="75.7043" width="1.99222" height="25.8988"/>
 <rect x="341.665" y="75.7043" width="51.7976" height="11.9533"/>
</g>
<rect x="80.6848" y="77.6965" width="17.929962" height="3.984436" style="fill:rgb(0,0,0);" />
<g style="fill:rgb(229,229,229);">
 <rect x="108.576" y="77.6965" width="197.23" height="15.9377"/>
 <rect x="393.463" y="77.6965" width="9.96112" height="9.96109"/>
 <rect x="407.409" y="77.6965" width="7.96887" height="11.9533"/>
 <rect x="419.362" y="77.6965" width="23.9066" height="13.9455"/>
 <rect x="104.591" y="79.6887" width="203.206" height="13.9455"/>
 <rect x="309.79" y="79.6887" width="5.97665" height="25.8988"/>
 <rect x="329.712" y="79.6887" width="113.556" height="1.99222"/>
</g>
<g style="fill:rgb(0,0,0);">
 <rect x="0.996109" y="81.6809" width="33.8677" height="29.8833"/>
 <rect x="34.8638" y="81.6809" width="5.97665" height="27.8911"/>
</g>
<g style="fill:rgb(229,229,229);">
 <rect x="102.599" y="81.6809" width="217.152" height="11.9533"/>
 <rect x="333.697" y="81.6809" width="109.572" height="1.99222"/>
</g>
<rect x="90.6459" y="83.6732" width="1.992218" height="1.992218" style="fill:rgb(0,0,0);" />
<g style="fill:rgb(229,229,229);">
 <rect x="98.6148" y="83.6732" width="223.128" height="9.96109"/>
 <rect x="335.689" y="83.6732" width="107.58" height="1.99222"/>
 <rect x="321.743" y="85.6654" width="1.99222" height="33.8677"/>
 <rect x="337.681" y="85.6654" width="105.588" height="1.99222"/>
 <rect x="323.735" y="87.6576" width="1.99222" height="31.8755"/>
 <rect x="391.471" y="87.6576" width="1.99219" height="1.99222"/>
 <rect x="415.377" y="87.6576" width="27.8911" height="3.98444"/>
 <rect x="325.728" y="89.6498" width="1.99222" height="29.8833"/>
 <rect x="355.611" y="89.6498" width="19.9222" height="1.99222"/>
</g>
<rect x="401.432" y="89.6498" width="3.984436" height="1.992218" style="fill:rgb(0,0,0);" />
<rect x="327.72" y="91.642" width="1.992218" height="25.898834" style="fill:rgb(229,229,229);" />
<rect x="349.634" y="91.642" width="3.984436" height="1.992218" style="fill:rgb(0,0,0);" />
<g style="fill:rgb(229,229,229);">
 <rect x="357.603" y="91.642" width="15.9377" height="1.99222"/>
 <rect x="465.183" y="91.642" width="29.8833" height="31.8755"/>
 <rect x="98.6148" y="93.6342" width="7.96887" height="85.6654"/>
 <rect x="305.805" y="93.6342" width="27.8911" height="7.96887"/>
 <rect x="359.595" y="93.6342" width="11.9533" height="111.564"/>
</g>
<rect x="375.533" y="93.6342" width="1.992218" height="1.992218" style="fill:rgb(0,0,0);" />
<g style="fill:rgb(229,229,229);">
 <rect x="106.584" y="95.6265" width="1.99222" height="5.97665"/>
 <rect x="108.576" y="95.6265" width="137.463" height="1.99222"/>
 <rect x="248.031" y="95.6265" width="1.99222" height="9.96109"/>
 <rect x="250.023" y="95.6265" width="25.8988" height="1.99222"/>
 <rect x="285.883" y="95.6265" width="47.8132" height="1.99222"/>
</g>
<rect x="355.611" y="95.6265" width="1.992218" height="1.992218" style="fill:rgb(0,0,0);" />
<g style="fill:rgb(229,229,229);">
 <rect x="371.549" y="95.6265" width="1.99222" height="93.6342"/>
 <rect x="112.56" y="97.6187" width="131.486" height="1.99222"/>
 <rect x="246.039" y="97.6187" width="3.98444" height="3.98444"/>
 <rect x="252.016" y="97.6187" width="3.98444" height="1.99222"/>
 <rect x="257.992" y="97.6187" width="17.93" height="1.99222"/>
 <rect x="289.868" y="97.6187" width="7.96887" height="1.99222"/>
 <rect x="333.697" y="97.6187" width="1.99222" height="49.8055"/>
 <rect x="373.541" y="97.6187" width="1.99222" height="91.642"/>
 <rect x="116.545" y="99.6109" width="127.502" height="1.99222"/>
 <rect x="250.023" y="99.6109" width="1.99222" height="7.96887"/>
 <rect x="256" y="99.6109" width="1.99222" height="51.7977"/>
 <rect x="259.984" y="99.6109" width="15.9377" height="1.99222"/>
 <rect x="291.86" y="99.6109" width="5.97665" height="1.99222"/>
 <rect x="335.689" y="99.6109" width="1.99222" height="268.949"/>
 <rect x="357.603" y="99.6109" width="19.9222" height="83.6732"/>
</g>
<rect x="379.518" y="99.6109" width="1.992218" height="1.992218" style="fill:rgb(0,0,0);" />
<g style="fill:rgb(229,229,229);">
 <rect x="168.342" y="101.603" width="19.9222" height="19.9222"/>
 <rect x="196.233" y="101.603" width="47.8132" height="5.97665"/>
 <rect x="244.047" y="101.603" width="1.99222" height="3.98444"/>
 <rect x="252.016" y="101.603" width="5.97665" height="9.96109"/>
 <rect x="261.977" y="101.603" width="25.8988" height="1.99222"/>
 <rect x="315.767" y="101.603" width="23.9066" height="15.9377"/>
 <rect x="355.611" y="101.603" width="21.9144" height="81.6809"/>
</g>
<g style="fill:rgb(0,0,0);">
 <rect x="381.51" y="101.603" width="5.97665" height="1.99222"/>
 <rect x="393.463" y="101.603" width="9.96112" height="1.99222"/>
</g>
<g style="fill:rgb(229,229,229);">
 <rect x="409.401" y="101.603" width="31.8755" height="81.6809"/>
 <rect x="90.6459" y="103.595" width="5.97665" height="13.9455"/>
 <rect x="116.545" y="103.595" width="29.8833" height="33.8677"/>
 <rect x="246.039" y="103.595" width="13.9455" height="1.99222"/>
 <rect x="265.961" y="103.595" width="21.9144" height="1.99222"/>
</g>
<rect x="297.837" y="103.595" width="9.9610901" height="1.992218" style="fill:rgb(0,0,0);" />
<g style="fill:rgb(229,229,229);">
 <rect x="339.673" y="103.595" width="1.99222" height="264.965"/>
 <rect x="353.619" y="103.595" width="25.8988" height="79.6887"/>
 <rect x="407.409" y="103.595" width="33.8677" height="79.6887"/>
 <rect x="501.043" y="103.595" width="3.98444" height="3.98444"/>
 <rect x="96.6226" y="105.588" width="9.96109" height="71.7198"/>
 <rect x="257.992" y="105.588" width="3.98444" height="11.9533"/>
 <rect x="313.774" y="105.588" width="27.8911" height="1.99222"/>
 <rect x="347.642" y="105.588" width="97.6187" height="67.7354"/>
 <rect x="459.206" y="105.588" width="27.8911" height="47.8132"/>
</g>
<rect x="40.8405" y="107.58" width="23.906616" height="13.945526" style="fill:rgb(0,0,0);" />
<g style="fill:rgb(229,229,229);">
 <rect x="202.21" y="107.58" width="9.96109" height="5.97665"/>
 <rect x="246.039" y="107.58" width="3.98444" height="15.9377"/>
</g>
<rect x="36.856" y="109.572" width="27.891052" height="11.953308" style="fill:rgb(0,0,0);" />
<g style="fill:rgb(229,229,229);">
 <rect x="106.584" y="109.572" width="5.97665" height="71.7198"/>
 <rect x="114.553" y="109.572" width="29.8833" height="79.6887"/>
 <rect x="240.062" y="109.572" width="9.96109" height="13.9455"/>
 <rect x="261.977" y="109.572" width="1.99222" height="1.99222"/>
 <rect x="445.261" y="109.572" width="41.8366" height="43.8288"/>
</g>
<g style="fill:rgb(0,0,0);">
 <rect x="0.996109" y="111.564" width="15.9377" height="11.9533"/>
 <rect x="16.9339" y="111.564" width="1.99222" height="9.96109"/>
 <rect x="18.9261" y="111.564" width="7.96887" height="1.99222"/>
</g>
<g style="fill:rgb(229,229,229);">
 <rect x="112.56" y="111.564" width="31.8755" height="73.7121"/>
 <rect x="188.265" y="111.564" width="5.97665" height="11.9533"/>
 <rect x="194.241" y="111.564" width="17.93" height="1.99222"/>
 <rect x="238.07" y="111.564" width="13.9455" height="11.9533"/>
 <rect x="254.008" y="111.564" width="7.96887" height="3.98444"/>
 <rect x="341.665" y="111.564" width="137.463" height="61.7588"/>
 <rect x="495.066" y="111.564" width="1.99219" height="3.98444"/>
</g>
<g style="fill:rgb(0,0,0);">
 <rect x="501.043" y="113.556" width="3.98444" height="1.99222"/>
 <rect x="34.8638" y="115.549" width="29.8833" height="5.97665"/>
</g>
<g style="fill:rgb(229,229,229);">
 <rect x="252.016" y="115.549" width="1.99222" height="7.96887"/>
 <rect x="313.774" y="115.549" width="13.9455" height="3.98444"/>
</g>
<rect x="26.8949" y="117.541" width="9.9610901" height="7.9688721" style="fill:rgb(0,0,0);" />
<g style="fill:rgb(229,229,229);">
 <rect x="92.6381" y="117.541" width="51.7977" height="59.7665"/>
 <rect x="254.008" y="117.541" width="3.98444" height="31.8755"/>
 <rect x="259.984" y="117.541" width="3.98444" height="25.8988"/>
 <rect x="329.712" y="117.541" width="157.385" height="29.8833"/>
</g>
<g style="fill:rgb(0,0,0);">
 <rect x="18.9261" y="119.533" width="1.99222" height="5.97665"/>
 <rect x="20.9183" y="119.533" width="43.8288" height="1.99222"/>
</g>
<g style="fill:rgb(229,229,229);">
 <rect x="88.6537" y="119.533" width="55.7821" height="45.821"/>
 <rect x="257.992" y="119.533" width="5.97665" height="23.9066"/>
</g>
<rect x="24.9027" y="121.525" width="11.953308" height="3.984436" style="fill:rgb(0,0,0);" />
<g style="fill:rgb(229,229,229);">
 <rect x="86.6615" y="121.525" width="57.7743" height="39.8444"/>
 <rect x="146.428" y="121.525" width="3.98444" height="5.97665"/>
 <rect x="150.412" y="121.525" width="1.99222" height="1.99222"/>
 <rect x="154.397" y="121.525" width="17.93" height="1.99222"/>
 <rect x="182.288" y="121.525" width="11.9533" height="1.99222"/>
</g>
<g style="fill:rgb(0,0,0);">
 <rect x="313.774" y="121.525" width="11.9533" height="9.96109"/>
 <rect x="0.996109" y="123.518" width="3.98444" height="15.9377"/>
 <rect x="12.9494" y="123.518" width="3.98444" height="15.9377"/>
 <rect x="16.9339" y="123.518" width="3.98444" height="1.99222"/>
 <rect x="36.856" y="123.518" width="9.96109" height="1.99222"/>
</g>
<g style="fill:rgb(229,229,229);">
 <rect x="84.6693" y="123.518" width="59.7665" height="37.8521"/>
 <rect x="160.374" y="123.518" width="11.9533" height="1.99222"/>
 <rect x="82.677" y="125.51" width="61.7587" height="35.8599"/>
 <rect x="80.6848" y="127.502" width="63.751" height="33.8677"/>
 <rect x="146.428" y="127.502" width="1.99222" height="5.97665"/>
 <rect x="66.7393" y="131.486" width="77.6965" height="19.9222"/>
</g>
<g style="fill:rgb(0,0,0);">
 <rect x="313.774" y="131.486" width="7.96887" height="1.99222"/>
 <rect x="323.735" y="131.486" width="1.99222" height="3.98444"/>
 <rect x="319.751" y="133.479" width="3.98444" height="3.98444"/>
 <rect x="325.728" y="133.479" width="1.99222" height="1.99222"/>
</g>
<rect x="325.728" y="137.463" width="161.36966" height="5.9766541" style="fill:rgb(229,229,229);" />
<rect x="162.366" y="139.455" width="1.992218" height="3.984436" style="fill:rgb(0,0,0);" />
<rect x="321.743" y="139.455" width="165.3541" height="3.984436" style="fill:rgb(229,229,229);" />
<rect x="14.9416" y="141.447" width="1.992218" height="1.992218" style="fill:rgb(0,0,0);" />
<g style="fill:rgb(229,229,229);">
 <rect x="18.9261" y="143.44" width="3.98444" height="5.97665"/>
 <rect x="22.9105" y="143.44" width="121.525" height="1.99222"/>
 <rect x="261.977" y="143.44" width="1.99222" height="3.98444"/>
 <rect x="321.743" y="143.44" width="1.99222" height="213.167"/>
 <rect x="24.9027" y="145.432" width="125.51" height="1.99222"/>
 <rect x="160.374" y="145.432" width="3.98444" height="65.7432"/>
 <rect x="26.8949" y="147.424" width="127.502" height="3.98444"/>
 <rect x="329.712" y="147.424" width="3.98444" height="217.152"/>
 <rect x="337.681" y="147.424" width="37.8521" height="41.8366"/>
 <rect x="24.9027" y="149.416" width="139.455" height="1.99222"/>
</g>
<rect x="194.241" y="149.416" width="1.992218" height="1.992218" style="fill:rgb(0,0,0);" />
<g style="fill:rgb(229,229,229);">
 <rect x="257.992" y="149.416" width="1.99222" height="1.99222"/>
 <rect x="487.097" y="149.416" width="7.96887" height="3.98444"/>
</g>
<g style="fill:rgb(0,0,0);">
 <rect x="0.996109" y="151.409" width="3.98444" height="23.9066"/>
 <rect x="12.9494" y="151.409" width="3.98444" height="5.97665"/>
</g>
<g style="fill:rgb(229,229,229);">
 <rect x="30.8794" y="151.409" width="35.8599" height="1.99222"/>
 <rect x="72.716" y="151.409" width="103.595" height="1.99222"/>
</g>
<rect x="259.984" y="151.409" width="3.984436" height="1.992218" style="fill:rgb(0,0,0);" />
<g style="fill:rgb(229,229,229);">
 <rect x="46.8171" y="153.401" width="7.96887" height="3.98444"/>
 <rect x="58.7704" y="153.401" width="1.99222" height="1.99222"/>
 <rect x="74.7082" y="153.401" width="97.6187" height="5.97665"/>
 <rect x="172.327" y="153.401" width="3.98444" height="3.98444"/>
</g>
<rect x="261.977" y="153.401" width="1.992218" height="11.953308" style="fill:rgb(0,0,0);" />
<g style="fill:rgb(229,229,229);">
 <rect x="333.697" y="153.401" width="37.8521" height="51.7977"/>
 <rect x="479.128" y="153.401" width="5.97662" height="9.96109"/>
 <rect x="176.311" y="155.393" width="5.97665" height="1.99222"/>
</g>
<rect x="12.9494" y="157.385" width="1.992218" height="5.9766541" style="fill:rgb(0,0,0);" />
<g style="fill:rgb(229,229,229);">
 <rect x="186.272" y="157.385" width="1.99222" height="63.751"/>
 <rect x="194.241" y="157.385" width="29.8833" height="5.97665"/>
 <rect x="232.093" y="157.385" width="5.97665" height="13.9455"/>
</g>
<rect x="259.984" y="157.385" width="3.984436" height="7.9688721" style="fill:rgb(0,0,0);" />
<rect x="323.735" y="157.385" width="47.813232" height="47.813217" style="fill:rgb(229,229,229);" />
<rect x="40.8405" y="159.377" width="5.9766541" height="69.727615" style="fill:rgb(0,0,0);" />
<g style="fill:rgb(229,229,229);">
 <rect x="144.436" y="159.377" width="31.8755" height="33.8677"/>
 <rect x="176.311" y="159.377" width="1.99222" height="11.9533"/>
 <rect x="184.28" y="159.377" width="3.98444" height="59.7665"/>
 <rect x="188.265" y="159.377" width="49.8055" height="3.98444"/>
 <rect x="244.047" y="159.377" width="1.99222" height="77.6965"/>
 <rect x="80.6848" y="161.37" width="5.97665" height="1.99222"/>
 <rect x="182.288" y="161.37" width="5.97665" height="11.9533"/>
 <rect x="246.039" y="161.37" width="1.99222" height="77.6965"/>
 <rect x="82.677" y="163.362" width="5.97665" height="7.96887"/>
 <rect x="178.303" y="163.362" width="9.96109" height="7.96887"/>
 <rect x="202.21" y="163.362" width="9.96109" height="9.96109"/>
 <rect x="212.171" y="163.362" width="37.8521" height="7.96887"/>
 <rect x="313.774" y="163.362" width="47.8132" height="47.8132"/>
</g>
<rect x="46.8171" y="165.354" width="1.992218" height="63.750961" style="fill:rgb(0,0,0);" />
<g style="fill:rgb(229,229,229);">
 <rect x="90.6459" y="165.354" width="85.6654" height="9.96109"/>
 <rect x="250.023" y="165.354" width="3.98444" height="63.751"/>
 <rect x="479.128" y="165.354" width="9.96106" height="71.7198"/>
 <rect x="88.6537" y="167.346" width="87.6576" height="7.96887"/>
 <rect x="188.265" y="167.346" width="7.96887" height="55.7821"/>
 <rect x="200.218" y="167.346" width="5.97665" height="59.7665"/>
 <rect x="254.008" y="167.346" width="1.99222" height="59.7665"/>
 <rect x="259.984" y="167.346" width="3.98444" height="55.7821"/>
 <rect x="196.233" y="169.339" width="9.96109" height="55.7821"/>
 <rect x="256" y="169.339" width="7.96887" height="53.7899"/>
</g>
<rect x="48.8093" y="171.331" width="1.992218" height="57.774307" style="fill:rgb(0,0,0);" />
<g style="fill:rgb(229,229,229);">
 <rect x="84.6693" y="171.331" width="91.642" height="1.99222"/>
 <rect x="180.296" y="171.331" width="31.8755" height="1.99222"/>
 <rect x="218.148" y="171.331" width="17.93" height="1.99222"/>
 <rect x="242.054" y="171.331" width="21.9144" height="51.7977"/>
 <rect x="86.6615" y="173.323" width="89.6498" height="1.99222"/>
 <rect x="220.14" y="173.323" width="15.9377" height="57.7743"/>
 <rect x="379.518" y="173.323" width="3.98444" height="9.96109"/>
 <rect x="401.432" y="173.323" width="87.6576" height="9.96109"/>
 <rect x="176.311" y="175.315" width="1.99222" height="43.8288"/>
 <rect x="206.195" y="175.315" width="1.99222" height="53.7899"/>
 <rect x="210.179" y="175.315" width="1.99222" height="53.7899"/>
 <rect x="218.148" y="175.315" width="17.93" height="55.7821"/>
 <rect x="178.303" y="177.307" width="1.99222" height="41.8366"/>
 <rect x="182.288" y="177.307" width="53.7899" height="41.8366"/>
</g>
<rect x="50.8016" y="179.3" width="1.992218" height="51.797653" style="fill:rgb(0,0,0);" />
<g style="fill:rgb(229,229,229);">
 <rect x="104.591" y="179.3" width="75.7043" height="1.99222"/>
 <rect x="236.078" y="179.3" width="37.8521" height="39.8443"/>
 <rect x="273.93" y="179.3" width="9.96109" height="37.8521"/>
 <rect x="293.852" y="179.3" width="3.98444" height="47.8132"/>
 <rect x="301.821" y="179.3" width="57.7743" height="57.7743"/>
 <rect x="180.296" y="181.292" width="93.6342" height="37.8521"/>
</g>
<rect x="14.9416" y="183.284" width="5.9766541" height="7.9688721" style="fill:rgb(0,0,0);" />
<g style="fill:rgb(229,229,229);">
 <rect x="289.868" y="183.284" width="69.7276" height="43.8288"/>
 <rect x="425.339" y="183.284" width="19.9222" height="25.8988"/>
 <rect x="445.261" y="183.284" width="27.8911" height="7.96887"/>
 <rect x="473.152" y="183.284" width="15.9377" height="5.97665"/>
</g>
<g style="fill:rgb(0,0,0);">
 <rect x="20.9183" y="185.276" width="5.97665" height="5.97665"/>
 <rect x="52.7938" y="185.276" width="1.99222" height="45.821"/>
</g>
<rect x="283.891" y="185.276" width="75.704285" height="41.836563" style="fill:rgb(229,229,229);" />
<g style="fill:rgb(0,0,0);">
 <rect x="26.8949" y="187.268" width="3.98444" height="3.98444"/>
 <rect x="0.996109" y="189.261" width="3.98444" height="1.99222"/>
 <rect x="12.9494" y="189.261" width="23.9066" height="1.99222"/>
 <rect x="98.6148" y="189.261" width="1.99222" height="1.99222"/>
</g>
<rect x="116.545" y="189.261" width="255.00389" height="1.992218" style="fill:rgb(229,229,229);" />
<rect x="34.8638" y="191.253" width="21.914398" height="13.945511" style="fill:rgb(0,0,0);" />
<g style="fill:rgb(229,229,229);">
 <rect x="118.537" y="191.253" width="25.8988" height="3.98442"/>
 <rect x="449.245" y="191.253" width="25.8989" height="71.7198"/>
</g>
<rect x="90.6459" y="193.245" width="3.984436" height="1.992218" style="fill:rgb(0,0,0);" />
<rect x="148.42" y="193.245" width="223.12842" height="1.992218" style="fill:rgb(229,229,229);" />
<rect x="92.6381" y="195.237" width="1.992218" height="3.984436" style="fill:rgb(0,0,0);" />
<g style="fill:rgb(229,229,229);">
 <rect x="120.529" y="195.237" width="21.9144" height="1.99222"/>
 <rect x="150.412" y="195.237" width="221.136" height="3.98444"/>
 <rect x="445.261" y="195.237" width="43.8288" height="41.8366"/>
</g>
<g style="fill:rgb(0,0,0);">
 <rect x="102.599" y="197.23" width="1.99222" height="5.97665"/>
 <rect x="0.996109" y="199.222" width="3.98444" height="71.7198"/>
 <rect x="12.9494" y="199.222" width="17.93" height="27.8911"/>
 <rect x="30.8794" y="199.222" width="27.8911" height="5.97665"/>
 <rect x="94.6304" y="199.222" width="1.99222" height="3.98444"/>
 <rect x="122.521" y="199.222" width="15.9377" height="1.99222"/>
</g>
<rect x="152.405" y="199.222" width="219.14398" height="5.9766541" style="fill:rgb(229,229,229);" />
<g style="fill:rgb(0,0,0);">
 <rect x="104.591" y="201.214" width="1.99222" height="9.96109"/>
 <rect x="124.514" y="201.214" width="11.9533" height="1.99222"/>
</g>
<rect x="371.549" y="203.206" width="3.984436" height="3.984436" style="fill:rgb(229,229,229);" />
<g style="fill:rgb(0,0,0);">
 <rect x="38.8483" y="205.198" width="21.9144" height="23.9066"/>
 <rect x="62.7549" y="205.198" width="3.98444" height="25.8988"/>
 <rect x="94.6304" y="205.198" width="1.99222" height="27.8911"/>
 <rect x="106.584" y="205.198" width="1.99222" height="21.9144"/>
</g>
<g style="fill:rgb(229,229,229);">
 <rect x="154.397" y="205.198" width="211.175" height="1.99222"/>
 <rect x="367.564" y="205.198" width="7.96887" height="1.99222"/>
</g>
<g style="fill:rgb(0,0,0);">
 <rect x="60.7626" y="207.191" width="7.96887" height="23.9066"/>
 <rect x="90.6459" y="207.191" width="5.97665" height="25.8988"/>
</g>
<rect x="158.381" y="207.191" width="205.19846" height="1.992218" style="fill:rgb(229,229,229);" />
<g style="fill:rgb(0,0,0);">
 <rect x="86.6615" y="209.183" width="11.9533" height="23.9066"/>
 <rect x="108.576" y="209.183" width="1.99222" height="17.93"/>
</g>
<rect x="164.358" y="209.183" width="195.23737" height="3.984436" style="fill:rgb(229,229,229);" />
<rect x="397.447" y="209.183" width="1.9922485" height="43.828796" style="fill:rgb(0,0,0);" />
<rect x="431.315" y="209.183" width="57.774292" height="3.984436" style="fill:rgb(229,229,229);" />
<g style="fill:rgb(0,0,0);">
 <rect x="4.98055" y="211.175" width="17.93" height="25.8988"/>
 <rect x="68.7315" y="211.175" width="1.99222" height="23.9066"/>
 <rect x="82.677" y="211.175" width="15.9377" height="21.9144"/>
 <rect x="148.42" y="211.175" width="1.99222" height="7.96887"/>
</g>
<rect x="425.339" y="211.175" width="63.750977" height="1.992218" style="fill:rgb(229,229,229);" />
<g style="fill:rgb(0,0,0);">
 <rect x="78.6926" y="213.167" width="19.9222" height="19.9222"/>
 <rect x="110.568" y="213.167" width="1.99222" height="11.9533"/>
 <rect x="146.428" y="213.167" width="7.96887" height="5.97665"/>
 <rect x="160.374" y="213.167" width="1.99222" height="1.99222"/>
</g>
<g style="fill:rgb(229,229,229);">
 <rect x="166.35" y="213.167" width="193.245" height="1.99222"/>
 <rect x="433.307" y="213.167" width="51.7977" height="25.8988"/>
</g>
<g style="fill:rgb(0,0,0);">
 <rect x="70.7237" y="215.16" width="1.99222" height="19.9222"/>
 <rect x="74.7082" y="215.16" width="19.9222" height="19.9222"/>
 <rect x="102.599" y="215.16" width="9.96109" height="9.96109"/>
 <rect x="144.436" y="215.16" width="11.9533" height="1.99222"/>
</g>
<rect x="170.335" y="215.16" width="191.25293" height="1.992218" style="fill:rgb(229,229,229);" />
<g style="fill:rgb(0,0,0);">
 <rect x="72.716" y="217.152" width="21.9144" height="17.93"/>
 <rect x="98.6148" y="217.152" width="11.9533" height="9.96109"/>
 <rect x="112.56" y="217.152" width="1.99222" height="7.96887"/>
 <rect x="154.397" y="217.152" width="1.99222" height="3.98444"/>
</g>
<rect x="277.914" y="217.152" width="87.657593" height="3.984436" style="fill:rgb(229,229,229);" />
<g style="fill:rgb(0,0,0);">
 <rect x="369.556" y="217.152" width="1.99222" height="1.99222"/>
 <rect x="150.412" y="219.144" width="7.96887" height="1.99222"/>
</g>
<g style="fill:rgb(229,229,229);">
 <rect x="208.187" y="219.144" width="45.821" height="9.96109"/>
 <rect x="263.969" y="219.144" width="1.99222" height="3.98444"/>
 <rect x="265.961" y="219.144" width="3.98444" height="1.99222"/>
 <rect x="365.572" y="219.144" width="1.99222" height="143.44"/>
</g>
<rect x="114.553" y="221.136" width="1.992218" height="1.992218" style="fill:rgb(0,0,0);" />
<g style="fill:rgb(229,229,229);">
 <rect x="279.907" y="221.136" width="87.6576" height="3.98444"/>
 <rect x="194.241" y="223.128" width="65.7432" height="1.99222"/>
 <rect x="198.226" y="225.121" width="57.7743" height="1.99222"/>
 <rect x="281.899" y="225.121" width="85.6654" height="1.99222"/>
</g>
<g style="fill:rgb(0,0,0);">
 <rect x="22.9105" y="227.113" width="1.99222" height="1.99222"/>
 <rect x="98.6148" y="227.113" width="3.98444" height="3.98444"/>
 <rect x="102.599" y="227.113" width="3.98444" height="1.99222"/>
</g>
<g style="fill:rgb(229,229,229);">
 <rect x="204.202" y="227.113" width="49.8055" height="1.99222"/>
 <rect x="283.891" y="227.113" width="3.98444" height="1.99222"/>
 <rect x="295.844" y="227.113" width="71.7198" height="3.98444"/>
</g>
<g style="fill:rgb(0,0,0);">
 <rect x="42.8327" y="229.105" width="1.99222" height="1.99222"/>
 <rect x="54.786" y="229.105" width="47.8132" height="1.99222"/>
</g>
<rect x="214.163" y="229.105" width="37.852142" height="1.992218" style="fill:rgb(229,229,229);" />
<rect x="66.7393" y="231.097" width="31.875488" height="1.992218" style="fill:rgb(0,0,0);" />
<g style="fill:rgb(229,229,229);">
 <rect x="222.132" y="231.097" width="29.8833" height="1.99222"/>
 <rect x="297.837" y="231.097" width="69.7276" height="1.99222"/>
 <rect x="431.315" y="231.097" width="11.9533" height="31.8755"/>
 <rect x="228.109" y="233.089" width="25.8988" height="1.99222"/>
 <rect x="299.829" y="233.089" width="67.7354" height="1.99222"/>
 <rect x="425.339" y="233.089" width="17.93" height="29.8833"/>
</g>
<g style="fill:rgb(0,0,0);">
 <rect x="76.7004" y="235.082" width="13.9455" height="1.99222"/>
 <rect x="222.132" y="235.082" width="3.98444" height="13.9455"/>
</g>
<g style="fill:rgb(229,229,229);">
 <rect x="232.093" y="235.082" width="7.96887" height="5.97665"/>
 <rect x="240.062" y="235.082" width="3.98444" height="3.98444"/>
 <rect x="248.031" y="235.082" width="7.96887" height="3.98444"/>
 <rect x="359.595" y="235.082" width="7.96887" height="123.518"/>
</g>
<g style="fill:rgb(0,0,0);">
 <rect x="4.98055" y="237.074" width="11.9533" height="17.93"/>
 <rect x="16.9339" y="237.074" width="3.98444" height="5.97665"/>
 <rect x="226.117" y="237.074" width="3.98444" height="7.96887"/>
</g>
<rect x="303.813" y="237.074" width="63.750977" height="1.992218" style="fill:rgb(229,229,229);" />
<rect x="497.058" y="237.074" width="7.9688721" height="1.992218" style="fill:rgb(0,0,0);" />
<g style="fill:rgb(229,229,229);">
 <rect x="307.798" y="239.066" width="59.7665" height="1.99222"/>
 <rect x="445.261" y="239.066" width="39.8444" height="1.99222"/>
 <rect x="232.093" y="241.058" width="3.98444" height="1.99222"/>
</g>
<g style="fill:rgb(0,0,0);">
 <rect x="256" y="241.058" width="3.98444" height="5.97665"/>
 <rect x="303.813" y="241.058" width="1.99222" height="5.97665"/>
</g>
<g style="fill:rgb(229,229,229);">
 <rect x="309.79" y="241.058" width="57.7743" height="3.98444"/>
 <rect x="447.253" y="241.058" width="37.8521" height="3.98444"/>
</g>
<g style="fill:rgb(0,0,0);">
 <rect x="16.9339" y="243.051" width="1.99222" height="5.97665"/>
 <rect x="259.984" y="243.051" width="1.99222" height="3.98444"/>
 <rect x="305.805" y="243.051" width="1.99222" height="7.96887"/>
</g>
<rect x="485.105" y="243.051" width="1.9922485" height="5.9766541" style="fill:rgb(229,229,229);" />
<rect x="226.117" y="245.043" width="1.992218" height="1.992218" style="fill:rgb(0,0,0);" />
<g style="fill:rgb(229,229,229);">
 <rect x="311.782" y="245.043" width="55.7821" height="7.96887"/>
 <rect x="475.144" y="245.043" width="7.96887" height="15.9377"/>
 <rect x="483.113" y="245.043" width="3.98444" height="3.98444"/>
</g>
<g style="fill:rgb(0,0,0);">
 <rect x="220.14" y="247.035" width="3.98444" height="3.98444"/>
 <rect x="307.798" y="247.035" width="1.99222" height="7.96887"/>
</g>
<g style="fill:rgb(229,229,229);">
 <rect x="487.097" y="247.035" width="3.98444" height="3.98444"/>
 <rect x="367.564" y="249.027" width="3.98444" height="113.556"/>
 <rect x="491.082" y="249.027" width="1.99219" height="1.99222"/>
 <rect x="495.066" y="249.027" width="9.96106" height="5.97665"/>
</g>
<g style="fill:rgb(0,0,0);">
 <rect x="110.568" y="251.019" width="3.98444" height="5.97664"/>
 <rect x="114.553" y="251.019" width="1.99222" height="3.98444"/>
 <rect x="150.412" y="251.019" width="1.99222" height="1.99222"/>
 <rect x="220.14" y="251.019" width="1.99222" height="1.99222"/>
</g>
<g style="fill:rgb(229,229,229);">
 <rect x="447.253" y="251.019" width="33.8677" height="11.9533"/>
 <rect x="487.097" y="251.019" width="1.99219" height="3.98444"/>
</g>
<g style="fill:rgb(0,0,0);">
 <rect x="106.584" y="253.012" width="3.98444" height="5.97664"/>
 <rect x="116.545" y="253.012" width="1.99222" height="1.99222"/>
 <rect x="148.42" y="253.012" width="1.99222" height="7.96886"/>
</g>
<g style="fill:rgb(229,229,229);">
 <rect x="313.774" y="253.012" width="33.8677" height="5.97664"/>
 <rect x="347.642" y="253.012" width="23.9066" height="3.98442"/>
 <rect x="443.268" y="253.012" width="37.8521" height="9.96107"/>
</g>
<g style="fill:rgb(0,0,0);">
 <rect x="4.98055" y="255.004" width="5.97665" height="7.96886"/>
 <rect x="10.9572" y="255.004" width="1.99222" height="3.98442"/>
 <rect x="12.9494" y="255.004" width="1.99222" height="1.9922"/>
 <rect x="104.591" y="255.004" width="5.97665" height="3.98442"/>
 <rect x="309.79" y="255.004" width="1.99222" height="3.98442"/>
</g>
<g style="fill:rgb(229,229,229);">
 <rect x="483.113" y="255.004" width="3.98444" height="5.97664"/>
 <rect x="497.058" y="255.004" width="7.96887" height="33.8677"/>
</g>
<rect x="146.428" y="256.996" width="3.984436" height="3.984436" style="fill:rgb(0,0,0);" />
<g style="fill:rgb(229,229,229);">
 <rect x="349.634" y="256.996" width="21.9144" height="101.603"/>
 <rect x="371.549" y="256.996" width="3.98444" height="13.9455"/>
 <rect x="493.074" y="256.996" width="11.9533" height="27.8911"/>
</g>
<rect x="144.436" y="258.988" width="5.9766541" height="1.992218" style="fill:rgb(0,0,0);" />
<g style="fill:rgb(229,229,229);">
 <rect x="315.767" y="258.988" width="31.8755" height="5.97665"/>
 <rect x="487.097" y="258.988" width="17.9299" height="3.98444"/>
 <rect x="100.607" y="260.981" width="3.98444" height="99.6109"/>
</g>
<rect x="311.782" y="260.981" width="1.992218" height="1.992218" style="fill:rgb(0,0,0);" />
<rect x="347.642" y="260.981" width="23.906616" height="97.618683" style="fill:rgb(229,229,229);" />
<rect x="4.98055" y="262.973" width="3.984436" height="3.984436" style="fill:rgb(0,0,0);" />
<g style="fill:rgb(229,229,229);">
 <rect x="98.6148" y="262.973" width="9.96109" height="97.6187"/>
 <rect x="118.537" y="262.973" width="5.97665" height="85.6654"/>
 <rect x="425.339" y="262.973" width="9.96112" height="11.9533"/>
 <rect x="92.6381" y="264.965" width="33.8677" height="81.6809"/>
</g>
<rect x="138.459" y="264.965" width="1.992218" height="1.992218" style="fill:rgb(0,0,0);" />
<rect x="317.759" y="264.965" width="53.789886" height="89.649811" style="fill:rgb(229,229,229);" />
<rect x="4.98055" y="266.957" width="1.992218" height="1.992218" style="fill:rgb(0,0,0);" />
<g style="fill:rgb(229,229,229);">
 <rect x="82.677" y="266.957" width="43.8288" height="79.6887"/>
 <rect x="152.405" y="266.957" width="13.9455" height="193.245"/>
 <rect x="126.506" y="268.949" width="1.9922" height="97.6187"/>
 <rect x="138.459" y="268.949" width="35.8599" height="189.261"/>
</g>
<rect x="0.996109" y="270.942" width="1.992218" height="1.992218" style="fill:rgb(0,0,0);" />
<g style="fill:rgb(229,229,229);">
 <rect x="14.9416" y="270.942" width="3.98444" height="5.97665"/>
 <rect x="80.6848" y="270.942" width="103.595" height="3.98444"/>
</g>
<rect x="311.782" y="270.942" width="1.992218" height="1.992218" style="fill:rgb(0,0,0);" />
<g style="fill:rgb(229,229,229);">
 <rect x="373.541" y="270.942" width="1.99222" height="1.99222"/>
 <rect x="12.9494" y="272.934" width="21.9144" height="1.99222"/>
 <rect x="184.28" y="272.934" width="7.96887" height="191.253"/>
</g>
<rect x="307.798" y="272.934" width="1.992218" height="1.992218" style="fill:rgb(0,0,0);" />
<g style="fill:rgb(229,229,229);">
 <rect x="315.767" y="272.934" width="55.7821" height="81.6809"/>
 <rect x="18.9261" y="274.926" width="17.93" height="15.9377"/>
 <rect x="36.856" y="274.926" width="1.99222" height="3.98444"/>
 <rect x="128.498" y="274.926" width="67.7354" height="95.6265"/>
</g>
<rect x="301.821" y="274.926" width="1.992218" height="1.992218" style="fill:rgb(0,0,0);" />
<g style="fill:rgb(229,229,229);">
 <rect x="311.782" y="274.926" width="61.7588" height="63.751"/>
 <rect x="425.339" y="274.926" width="3.98444" height="1.99222"/>
 <rect x="433.307" y="274.926" width="1.99225" height="3.98444"/>
 <rect x="16.9339" y="276.918" width="19.9222" height="13.9455"/>
 <rect x="196.233" y="276.918" width="1.99222" height="75.7043"/>
 <rect x="305.805" y="276.918" width="67.7354" height="61.7588"/>
</g>
<rect x="461.198" y="276.918" width="5.9766846" height="11.953308" style="fill:rgb(0,0,0);" />
<g style="fill:rgb(229,229,229);">
 <rect x="60.7626" y="278.91" width="9.96109" height="99.6109"/>
 <rect x="80.6848" y="278.91" width="121.525" height="67.7354"/>
 <rect x="299.829" y="278.91" width="75.7043" height="59.7665"/>
 <rect x="375.533" y="278.91" width="5.97665" height="5.97665"/>
 <rect x="381.51" y="278.91" width="1.99222" height="1.99222"/>
</g>
<g style="fill:rgb(0,0,0);">
 <rect x="389.479" y="278.91" width="1.99225" height="5.97665"/>
 <rect x="391.471" y="278.91" width="25.8988" height="1.99222"/>
</g>
<g style="fill:rgb(229,229,229);">
 <rect x="36.856" y="280.903" width="1.99222" height="147.424"/>
 <rect x="58.7704" y="280.903" width="153.401" height="65.7432"/>
 <rect x="291.86" y="280.903" width="87.6576" height="7.96887"/>
</g>
<rect x="403.424" y="280.903" width="13.945496" height="1.992218" style="fill:rgb(0,0,0);" />
<rect x="14.9416" y="282.895" width="31.875488" height="7.9688721" style="fill:rgb(229,229,229);" />
<g style="fill:rgb(0,0,0);">
 <rect x="383.502" y="282.895" width="1.99219" height="1.99222"/>
 <rect x="387.486" y="282.895" width="1.99219" height="3.98444"/>
 <rect x="411.393" y="282.895" width="5.97662" height="1.99222"/>
</g>
<rect x="46.8171" y="284.887" width="7.9688721" height="81.680939" style="fill:rgb(229,229,229);" />
<g style="fill:rgb(0,0,0);">
 <rect x="214.163" y="284.887" width="1.99222" height="7.96887"/>
 <rect x="415.377" y="284.887" width="1.99219" height="15.9377"/>
 <rect x="431.315" y="284.887" width="3.98444" height="1.99222"/>
</g>
<g style="fill:rgb(229,229,229);">
 <rect x="495.066" y="284.887" width="9.96106" height="1.99222"/>
 <rect x="54.786" y="286.879" width="157.385" height="59.7665"/>
</g>
<g style="fill:rgb(0,0,0);">
 <rect x="216.156" y="288.872" width="1.99222" height="3.98444"/>
 <rect x="240.062" y="288.872" width="1.99222" height="5.97665"/>
</g>
<g style="fill:rgb(229,229,229);">
 <rect x="293.852" y="288.872" width="81.6809" height="49.8055"/>
 <rect x="375.533" y="288.872" width="1.99222" height="3.98444"/>
</g>
<g style="fill:rgb(0,0,0);">
 <rect x="417.37" y="288.872" width="1.99225" height="11.9533"/>
 <rect x="423.346" y="288.872" width="7.96887" height="9.96109"/>
 <rect x="457.214" y="288.872" width="3.98444" height="5.97665"/>
 <rect x="461.198" y="288.872" width="1.99225" height="3.98444"/>
 <rect x="463.191" y="288.872" width="1.99219" height="1.99222"/>
</g>
<g style="fill:rgb(229,229,229);">
 <rect x="501.043" y="288.872" width="9.96112" height="1.99222"/>
 <rect x="14.9416" y="290.864" width="1.99222" height="3.98444"/>
 <rect x="16.9339" y="290.864" width="1.99222" height="1.99222"/>
 <rect x="26.8949" y="290.864" width="185.276" height="1.99222"/>
</g>
<g style="fill:rgb(0,0,0);">
 <rect x="236.078" y="290.864" width="7.96887" height="3.98444"/>
 <rect x="385.494" y="290.864" width="7.96887" height="3.98444"/>
 <rect x="419.362" y="290.864" width="11.9533" height="7.96887"/>
</g>
<g style="fill:rgb(229,229,229);">
 <rect x="503.035" y="290.864" width="7.96887" height="1.99222"/>
 <rect x="12.9494" y="292.856" width="3.98444" height="1.99222"/>
 <rect x="28.8872" y="292.856" width="83.6732" height="63.751"/>
</g>
<rect x="234.086" y="292.856" width="9.9610901" height="1.992218" style="fill:rgb(0,0,0);" />
<rect x="263.969" y="292.856" width="3.984436" height="45.821014" style="fill:rgb(229,229,229);" />
<rect x="383.502" y="292.856" width="1.9921875" height="3.984436" style="fill:rgb(0,0,0);" />
<g style="fill:rgb(229,229,229);">
 <rect x="505.027" y="292.856" width="5.97668" height="1.99222"/>
 <rect x="212.171" y="294.848" width="1.99222" height="55.7821"/>
</g>
<rect x="248.031" y="294.848" width="3.984436" height="3.984436" style="fill:rgb(0,0,0);" />
<g style="fill:rgb(229,229,229);">
 <rect x="257.992" y="294.848" width="9.96109" height="43.8288"/>
 <rect x="275.922" y="294.848" width="99.6109" height="43.8288"/>
</g>
<rect x="391.471" y="294.848" width="1.9921875" height="1.992218" style="fill:rgb(0,0,0);" />
<g style="fill:rgb(229,229,229);">
 <rect x="507.019" y="294.848" width="3.98444" height="3.98444"/>
 <rect x="26.8949" y="296.84" width="59.7665" height="67.7354"/>
</g>
<rect x="252.016" y="296.84" width="1.992218" height="3.984436" style="fill:rgb(0,0,0);" />
<rect x="256" y="296.84" width="119.53308" height="41.836578" style="fill:rgb(229,229,229);" />
<rect x="413.385" y="296.84" width="9.9611206" height="3.984436" style="fill:rgb(0,0,0);" />
<g style="fill:rgb(229,229,229);">
 <rect x="214.163" y="298.833" width="1.99222" height="51.7977"/>
 <rect x="240.062" y="298.833" width="5.97665" height="51.7977"/>
</g>
<rect x="250.023" y="298.833" width="3.984436" height="1.992218" style="fill:rgb(0,0,0);" />
<g style="fill:rgb(229,229,229);">
 <rect x="377.525" y="298.833" width="1.99222" height="59.7665"/>
 <rect x="381.51" y="298.833" width="1.99222" height="59.7665"/>
 <rect x="24.9027" y="300.825" width="61.7588" height="63.751"/>
 <rect x="216.156" y="300.825" width="1.99222" height="49.8055"/>
 <rect x="236.078" y="300.825" width="11.9533" height="37.8521"/>
 <rect x="375.533" y="300.825" width="9.96106" height="55.7821"/>
 <rect x="218.148" y="302.817" width="1.99222" height="47.8132"/>
 <rect x="232.093" y="302.817" width="157.385" height="35.8599"/>
</g>
<rect x="427.331" y="302.817" width="3.984436" height="9.9610901" style="fill:rgb(0,0,0);" />
<rect x="220.14" y="304.809" width="171.33075" height="33.867706" style="fill:rgb(229,229,229);" />
<rect x="413.385" y="304.809" width="17.929993" height="7.9688721" style="fill:rgb(0,0,0);" />
<g style="fill:rgb(229,229,229);">
 <rect x="22.9105" y="306.802" width="61.7588" height="59.7665"/>
 <rect x="391.471" y="306.802" width="1.99219" height="59.7665"/>
</g>
<rect x="407.409" y="306.802" width="7.9688721" height="7.9688721" style="fill:rgb(0,0,0);" />
<g style="fill:rgb(229,229,229);">
 <rect x="16.9339" y="308.794" width="380.514" height="19.9222"/>
 <rect x="12.9494" y="310.786" width="386.49" height="1.99222"/>
</g>
<rect x="405.416" y="310.786" width="9.9611206" height="3.984436" style="fill:rgb(0,0,0);" />
<g style="fill:rgb(229,229,229);">
 <rect x="14.9416" y="312.778" width="382.506" height="13.9455"/>
 <rect x="397.447" y="312.778" width="5.97668" height="1.99222"/>
 <rect x="401.432" y="314.77" width="1.99225" height="1.99222"/>
</g>
<g style="fill:rgb(0,0,0);">
 <rect x="407.409" y="314.77" width="1.99219" height="3.98444"/>
 <rect x="409.401" y="314.77" width="1.99225" height="1.99222"/>
 <rect x="491.082" y="316.763" width="7.96887" height="3.98444"/>
 <rect x="499.051" y="316.763" width="3.98444" height="1.99222"/>
</g>
<rect x="397.447" y="318.755" width="1.9922485" height="95.626465" style="fill:rgb(229,229,229);" />
<g style="fill:rgb(0,0,0);">
 <rect x="405.416" y="318.755" width="1.99225" height="1.99222"/>
 <rect x="489.089" y="318.755" width="9.96112" height="1.99222"/>
</g>
<g style="fill:rgb(229,229,229);">
 <rect x="399.44" y="320.747" width="1.99219" height="93.6342"/>
 <rect x="401.432" y="324.732" width="1.99225" height="7.96887"/>
 <rect x="403.424" y="324.732" width="1.99219" height="1.99222"/>
</g>
<g style="fill:rgb(0,0,0);">
 <rect x="0.996109" y="326.724" width="3.98444" height="13.9455"/>
 <rect x="12.9494" y="328.716" width="1.99222" height="11.9533"/>
</g>
<rect x="18.9261" y="328.716" width="384.49805" height="1.992218" style="fill:rgb(229,229,229);" />
<rect x="14.9416" y="330.708" width="1.992218" height="11.953308" style="fill:rgb(0,0,0);" />
<g style="fill:rgb(229,229,229);">
 <rect x="20.9183" y="330.708" width="63.751" height="35.8599"/>
 <rect x="393.463" y="330.708" width="7.96887" height="37.8521"/>
</g>
<g style="fill:rgb(0,0,0);">
 <rect x="479.128" y="330.708" width="25.8988" height="5.97665"/>
 <rect x="509.012" y="330.708" width="1.99225" height="1.99222"/>
 <rect x="16.9339" y="332.7" width="1.99222" height="7.96887"/>
 <rect x="477.136" y="332.7" width="33.8677" height="3.98444"/>
</g>
<rect x="401.432" y="336.685" width="1.9922485" height="79.688721" style="fill:rgb(229,229,229);" />
<rect x="481.121" y="336.685" width="29.883301" height="1.992218" style="fill:rgb(0,0,0);" />
<g style="fill:rgb(229,229,229);">
 <rect x="220.14" y="338.677" width="11.9533" height="11.9533"/>
 <rect x="232.093" y="338.677" width="1.99222" height="1.99222"/>
 <rect x="238.07" y="338.677" width="23.9066" height="11.9533"/>
 <rect x="265.961" y="338.677" width="43.8288" height="17.93"/>
 <rect x="313.774" y="338.677" width="89.6498" height="15.9377"/>
</g>
<rect x="483.113" y="338.677" width="27.891052" height="1.992218" style="fill:rgb(0,0,0);" />
<rect x="403.424" y="340.669" width="1.9921875" height="77.696503" style="fill:rgb(229,229,229);" />
<rect x="485.105" y="340.669" width="25.898865" height="1.992218" style="fill:rgb(0,0,0);" />
<g style="fill:rgb(229,229,229);">
 <rect x="18.9261" y="342.661" width="93.6342" height="13.9455"/>
 <rect x="232.093" y="342.661" width="1.99222" height="7.96887"/>
 <rect x="261.977" y="342.661" width="145.432" height="9.96109"/>
 <rect x="439.284" y="342.661" width="11.9533" height="45.821"/>
</g>
<rect x="487.097" y="342.661" width="23.906616" height="1.992218" style="fill:rgb(0,0,0);" />
<g style="fill:rgb(229,229,229);">
 <rect x="14.9416" y="344.654" width="97.6187" height="9.96109"/>
 <rect x="234.086" y="344.654" width="175.315" height="5.97665"/>
 <rect x="451.237" y="344.654" width="1.99219" height="47.8132"/>
</g>
<rect x="489.089" y="344.654" width="21.914429" height="1.992218" style="fill:rgb(0,0,0);" />
<g style="fill:rgb(229,229,229);">
 <rect x="116.545" y="346.646" width="85.6654" height="1.99222"/>
 <rect x="204.202" y="346.646" width="207.191" height="1.99222"/>
 <rect x="437.292" y="346.646" width="17.93" height="41.8366"/>
</g>
<rect x="493.074" y="346.646" width="17.929993" height="1.992218" style="fill:rgb(0,0,0);" />
<g style="fill:rgb(229,229,229);">
 <rect x="120.529" y="348.638" width="75.7043" height="15.9377"/>
 <rect x="198.226" y="348.638" width="1.99222" height="1.99222"/>
 <rect x="206.195" y="348.638" width="1.99222" height="1.99222"/>
 <rect x="210.179" y="348.638" width="1.99222" height="3.98444"/>
 <rect x="409.401" y="348.638" width="3.98444" height="69.7276"/>
 <rect x="433.307" y="348.638" width="23.9066" height="39.8444"/>
</g>
<rect x="495.066" y="348.638" width="15.937744" height="1.992218" style="fill:rgb(0,0,0);" />
<g style="fill:rgb(229,229,229);">
 <rect x="112.56" y="350.63" width="1.99222" height="15.9377"/>
 <rect x="118.537" y="350.63" width="77.6965" height="13.9455"/>
 <rect x="407.409" y="350.63" width="11.9533" height="67.7354"/>
 <rect x="427.331" y="350.63" width="31.8755" height="37.8521"/>
</g>
<rect x="497.058" y="350.63" width="13.945557" height="1.992218" style="fill:rgb(0,0,0);" />
<rect x="263.969" y="352.623" width="197.22955" height="1.992218" style="fill:rgb(229,229,229);" />
<rect x="499.051" y="352.623" width="11.953308" height="1.992218" style="fill:rgb(0,0,0);" />
<g style="fill:rgb(229,229,229);">
 <rect x="16.9339" y="354.615" width="97.6187" height="1.99222"/>
 <rect x="309.79" y="354.615" width="3.98444" height="3.98444"/>
 <rect x="319.751" y="354.615" width="141.447" height="1.99222"/>
</g>
<rect x="501.043" y="354.615" width="9.9611206" height="1.992218" style="fill:rgb(0,0,0);" />
<g style="fill:rgb(229,229,229);">
 <rect x="96.6226" y="356.607" width="101.603" height="1.99222"/>
 <rect x="267.953" y="356.607" width="17.93" height="1.99222"/>
 <rect x="293.852" y="356.607" width="13.9455" height="7.96887"/>
 <rect x="307.798" y="356.607" width="3.98444" height="3.98444"/>
 <rect x="323.735" y="356.607" width="55.7821" height="1.99222"/>
 <rect x="383.502" y="356.607" width="77.6965" height="3.98444"/>
 <rect x="461.198" y="356.607" width="1.99225" height="1.99222"/>
</g>
<rect x="503.035" y="356.607" width="7.9688721" height="1.992218" style="fill:rgb(0,0,0);" />
<g style="fill:rgb(229,229,229);">
 <rect x="108.576" y="358.599" width="7.96887" height="7.96887"/>
 <rect x="116.545" y="358.599" width="83.6731" height="5.97665"/>
 <rect x="269.946" y="358.599" width="9.96109" height="1.99222"/>
 <rect x="325.728" y="358.599" width="31.8755" height="1.99222"/>
 <rect x="361.588" y="358.599" width="15.9377" height="1.99222"/>
</g>
<rect x="507.019" y="358.599" width="3.984436" height="1.992218" style="fill:rgb(0,0,0);" />
<g style="fill:rgb(229,229,229);">
 <rect x="102.599" y="360.591" width="97.6187" height="3.98444"/>
 <rect x="200.218" y="360.591" width="1.99222" height="1.99222"/>
 <rect x="307.798" y="360.591" width="1.99222" height="1.99222"/>
 <rect x="327.72" y="360.591" width="29.8833" height="1.99222"/>
 <rect x="387.486" y="360.591" width="73.712" height="1.99222"/>
 <rect x="465.183" y="360.591" width="1.99225" height="67.7354"/>
</g>
<rect x="509.012" y="360.591" width="1.9922485" height="1.992218" style="fill:rgb(0,0,0);" />
<g style="fill:rgb(229,229,229);">
 <rect x="18.9261" y="362.584" width="19.9222" height="65.7432"/>
 <rect x="86.6615" y="362.584" width="1.99222" height="1.99222"/>
 <rect x="333.697" y="362.584" width="25.8988" height="3.98444"/>
</g>
<rect x="363.58" y="362.584" width="1.992218" height="1.992218" style="fill:rgb(0,0,0);" />
<g style="fill:rgb(229,229,229);">
 <rect x="389.479" y="362.584" width="81.681" height="1.99222"/>
 <rect x="102.599" y="364.576" width="1.99222" height="1.99222"/>
 <rect x="196.233" y="364.576" width="3.98444" height="29.8833"/>
 <rect x="295.844" y="364.576" width="7.96887" height="5.97665"/>
 <rect x="303.813" y="364.576" width="1.99222" height="3.98444"/>
 <rect x="331.704" y="364.576" width="29.8833" height="1.99222"/>
 <rect x="405.416" y="364.576" width="33.8677" height="53.7899"/>
 <rect x="459.206" y="364.576" width="13.9455" height="63.751"/>
 <rect x="16.9339" y="366.568" width="21.9144" height="61.7588"/>
 <rect x="38.8483" y="366.568" width="3.98444" height="5.97665"/>
 <rect x="54.786" y="366.568" width="21.9144" height="5.97665"/>
 <rect x="76.7004" y="366.568" width="3.98444" height="1.99222"/>
 <rect x="110.568" y="366.568" width="1.99222" height="1.99222"/>
</g>
<rect x="118.537" y="366.568" width="5.9766541" height="7.9688721" style="fill:rgb(0,0,0);" />
<g style="fill:rgb(229,229,229);">
 <rect x="337.681" y="366.568" width="23.9066" height="1.99222"/>
 <rect x="473.152" y="366.568" width="1.99225" height="3.98444"/>
</g>
<rect x="114.553" y="368.56" width="11.953308" height="5.9766541" style="fill:rgb(0,0,0);" />
<g style="fill:rgb(229,229,229);">
 <rect x="345.65" y="368.56" width="13.9455" height="1.99222"/>
 <rect x="395.455" y="368.56" width="77.6965" height="5.97665"/>
 <rect x="475.144" y="368.56" width="1.99219" height="1.99222"/>
</g>
<rect x="112.56" y="370.553" width="13.945526" height="3.984436" style="fill:rgb(0,0,0);" />
<g style="fill:rgb(229,229,229);">
 <rect x="130.49" y="370.553" width="69.7276" height="3.98444"/>
 <rect x="297.837" y="370.553" width="1.99222" height="3.98444"/>
 <rect x="299.829" y="370.553" width="1.99222" height="1.99222"/>
 <rect x="347.642" y="370.553" width="11.9533" height="1.99222"/>
 <rect x="14.9416" y="372.545" width="23.9066" height="31.8755"/>
 <rect x="58.7704" y="372.545" width="15.9377" height="1.99222"/>
</g>
<rect x="126.506" y="372.545" width="1.9922028" height="1.992218" style="fill:rgb(0,0,0);" />
<g style="fill:rgb(229,229,229);">
 <rect x="351.626" y="372.545" width="5.97665" height="1.99222"/>
 <rect x="479.128" y="372.545" width="5.97662" height="33.8677"/>
 <rect x="70.7237" y="374.537" width="3.98444" height="1.99222"/>
 <rect x="134.475" y="374.537" width="61.7588" height="23.9066"/>
 <rect x="473.152" y="374.537" width="13.9456" height="29.8833"/>
</g>
<g style="fill:rgb(0,0,0);">
 <rect x="226.117" y="376.529" width="41.8366" height="21.9144"/>
 <rect x="293.852" y="376.529" width="1.99222" height="3.98444"/>
 <rect x="295.844" y="376.529" width="1.99222" height="1.99222"/>
 <rect x="347.642" y="376.529" width="3.98444" height="1.99222"/>
</g>
<g style="fill:rgb(229,229,229);">
 <rect x="487.097" y="376.529" width="1.99219" height="25.8988"/>
 <rect x="60.7626" y="378.521" width="5.97665" height="1.99222"/>
</g>
<rect x="353.619" y="378.521" width="1.992218" height="3.984436" style="fill:rgb(0,0,0);" />
<rect x="489.089" y="378.521" width="1.9922485" height="25.898834" style="fill:rgb(229,229,229);" />
<rect x="355.611" y="380.514" width="1.992218" height="27.891052" style="fill:rgb(0,0,0);" />
<g style="fill:rgb(229,229,229);">
 <rect x="491.082" y="380.514" width="1.99219" height="21.9144"/>
 <rect x="493.074" y="382.506" width="3.98444" height="15.9377"/>
 <rect x="497.058" y="384.498" width="1.99225" height="11.9533"/>
</g>
<g style="fill:rgb(0,0,0);">
 <rect x="0.996109" y="386.49" width="3.98444" height="17.93"/>
 <rect x="353.619" y="386.49" width="3.98444" height="21.9144"/>
</g>
<g style="fill:rgb(229,229,229);">
 <rect x="395.455" y="386.49" width="43.8288" height="25.8988"/>
 <rect x="499.051" y="386.49" width="1.99219" height="7.96887"/>
</g>
<rect x="351.626" y="388.482" width="7.9688721" height="19.92218" style="fill:rgb(0,0,0);" />
<g style="fill:rgb(229,229,229);">
 <rect x="439.284" y="388.482" width="3.98444" height="3.98444"/>
 <rect x="443.268" y="388.482" width="1.99219" height="1.99222"/>
 <rect x="447.253" y="388.482" width="55.7821" height="1.99222"/>
 <rect x="449.245" y="390.475" width="53.7899" height="1.99222"/>
</g>
<rect x="349.634" y="392.467" width="11.953308" height="15.937744" style="fill:rgb(0,0,0);" />
<g style="fill:rgb(229,229,229);">
 <rect x="393.463" y="392.467" width="45.821" height="17.93"/>
 <rect x="439.284" y="392.467" width="1.99219" height="3.98444"/>
 <rect x="453.23" y="392.467" width="25.8989" height="35.8599"/>
</g>
<rect x="347.642" y="394.459" width="15.937744" height="13.945526" style="fill:rgb(0,0,0);" />
<g style="fill:rgb(229,229,229);">
 <rect x="391.471" y="394.459" width="47.8132" height="13.9455"/>
 <rect x="196.233" y="396.451" width="1.99222" height="71.7198"/>
</g>
<rect x="345.65" y="396.451" width="19.92218" height="11.953308" style="fill:rgb(0,0,0);" />
<g style="fill:rgb(229,229,229);">
 <rect x="389.479" y="396.451" width="49.8055" height="9.96109"/>
 <rect x="451.237" y="396.451" width="27.8911" height="31.8755"/>
 <rect x="12.9494" y="398.444" width="29.8833" height="5.97665"/>
 <rect x="174.319" y="398.444" width="25.8988" height="61.7588"/>
</g>
<rect x="343.658" y="398.444" width="21.914398" height="9.9610901" style="fill:rgb(0,0,0);" />
<g style="fill:rgb(229,229,229);">
 <rect x="387.486" y="398.444" width="53.7899" height="5.97665"/>
 <rect x="493.074" y="398.444" width="1.99225" height="1.99222"/>
</g>
<rect x="509.012" y="398.444" width="1.9922485" height="1.992218" style="fill:rgb(0,0,0);" />
<g style="fill:rgb(229,229,229);">
 <rect x="277.914" y="400.436" width="17.93" height="55.7821"/>
 <rect x="441.276" y="400.436" width="1.99225" height="49.8055"/>
 <rect x="449.245" y="400.436" width="29.8833" height="27.8911"/>
</g>
<rect x="507.019" y="400.436" width="3.984436" height="3.984436" style="fill:rgb(0,0,0);" />
<rect x="295.844" y="402.428" width="3.984436" height="53.789886" style="fill:rgb(229,229,229);" />
<rect x="341.665" y="402.428" width="23.906616" height="5.9766541" style="fill:rgb(0,0,0);" />
<rect x="443.268" y="402.428" width="35.859924" height="25.898834" style="fill:rgb(229,229,229);" />
<g style="fill:rgb(0,0,0);">
 <rect x="505.027" y="402.428" width="5.97668" height="5.97665"/>
 <rect x="0.996109" y="404.42" width="1.99222" height="7.96887"/>
</g>
<rect x="299.829" y="404.42" width="1.992218" height="55.782104" style="fill:rgb(229,229,229);" />
<rect x="339.673" y="404.42" width="3.984436" height="5.9766541" style="fill:rgb(0,0,0);" />
<g style="fill:rgb(229,229,229);">
 <rect x="439.284" y="404.42" width="25.8988" height="25.8988"/>
 <rect x="134.475" y="406.412" width="65.7432" height="15.9377"/>
 <rect x="275.922" y="406.412" width="27.8911" height="11.9533"/>
</g>
<rect x="337.681" y="406.412" width="3.984436" height="5.9766541" style="fill:rgb(0,0,0);" />
<g style="fill:rgb(229,229,229);">
 <rect x="479.128" y="406.412" width="1.99219" height="5.97665"/>
 <rect x="481.121" y="406.412" width="1.99225" height="1.99222"/>
</g>
<g style="fill:rgb(0,0,0);">
 <rect x="503.035" y="406.412" width="7.96887" height="7.96887"/>
 <rect x="80.6848" y="408.405" width="3.98444" height="57.7743"/>
</g>
<rect x="273.93" y="408.405" width="29.88327" height="7.9688721" style="fill:rgb(229,229,229);" />
<g style="fill:rgb(0,0,0);">
 <rect x="335.689" y="408.405" width="3.98444" height="5.97665"/>
 <rect x="501.043" y="408.405" width="9.96112" height="9.96109"/>
 <rect x="76.7004" y="410.397" width="7.96887" height="55.7821"/>
</g>
<rect x="303.813" y="410.397" width="5.9766541" height="53.789886" style="fill:rgb(229,229,229);" />
<g style="fill:rgb(0,0,0);">
 <rect x="333.697" y="410.397" width="3.98444" height="5.97665"/>
 <rect x="499.051" y="410.397" width="11.9533" height="11.9533"/>
 <rect x="72.716" y="412.389" width="11.9533" height="53.7899"/>
</g>
<rect x="309.79" y="412.389" width="1.992218" height="55.782104" style="fill:rgb(229,229,229);" />
<rect x="66.7393" y="414.381" width="17.929962" height="51.797668" style="fill:rgb(0,0,0);" />
<g style="fill:rgb(229,229,229);">
 <rect x="200.218" y="414.381" width="1.99222" height="53.7899"/>
 <rect x="311.782" y="414.381" width="1.99222" height="53.7899"/>
</g>
<rect x="331.704" y="414.381" width="3.984436" height="3.984436" style="fill:rgb(0,0,0);" />
<rect x="479.128" y="414.381" width="1.9921875" height="15.937744" style="fill:rgb(229,229,229);" />
<g style="fill:rgb(0,0,0);">
 <rect x="497.058" y="414.381" width="13.9456" height="13.9455"/>
 <rect x="62.7549" y="416.374" width="21.9144" height="49.8055"/>
</g>
<g style="fill:rgb(229,229,229);">
 <rect x="202.21" y="416.374" width="1.99222" height="49.8055"/>
 <rect x="267.953" y="416.374" width="1.99222" height="47.8132"/>
 <rect x="313.774" y="416.374" width="1.99222" height="11.9533"/>
</g>
<rect x="329.712" y="416.374" width="5.9766541" height="1.992218" style="fill:rgb(0,0,0);" />
<rect x="12.9494" y="418.366" width="29.88327" height="9.9610901" style="fill:rgb(229,229,229);" />
<rect x="56.7782" y="418.366" width="27.891052" height="19.92218" style="fill:rgb(0,0,0);" />
<g style="fill:rgb(229,229,229);">
 <rect x="204.202" y="418.366" width="1.99222" height="47.8132"/>
 <rect x="269.946" y="418.366" width="1.99222" height="45.821"/>
 <rect x="301.821" y="418.366" width="11.9533" height="43.8288"/>
 <rect x="315.767" y="418.366" width="1.99222" height="7.96887"/>
</g>
<rect x="331.704" y="418.366" width="1.992218" height="1.992218" style="fill:rgb(0,0,0);" />
<g style="fill:rgb(229,229,229);">
 <rect x="405.416" y="418.366" width="3.98444" height="1.99222"/>
 <rect x="413.385" y="418.366" width="71.7198" height="5.97665"/>
 <rect x="485.105" y="418.366" width="1.99225" height="3.98444"/>
 <rect x="206.195" y="420.358" width="1.99222" height="45.821"/>
 <rect x="317.759" y="420.358" width="1.99222" height="1.99222"/>
</g>
<rect x="495.066" y="420.358" width="15.937744" height="15.937744" style="fill:rgb(0,0,0);" />
<g style="fill:rgb(229,229,229);">
 <rect x="136.467" y="422.35" width="73.7121" height="35.8599"/>
 <rect x="271.938" y="422.35" width="41.8366" height="33.8677"/>
</g>
<rect x="493.074" y="422.35" width="17.929993" height="17.929962" style="fill:rgb(0,0,0);" />
<g style="fill:rgb(229,229,229);">
 <rect x="210.179" y="424.342" width="53.7899" height="31.8755"/>
 <rect x="415.377" y="424.342" width="65.7432" height="3.98444"/>
 <rect x="481.121" y="424.342" width="1.99225" height="1.99222"/>
</g>
<rect x="491.082" y="424.342" width="19.92218" height="19.92218" style="fill:rgb(0,0,0);" />
<g style="fill:rgb(229,229,229);">
 <rect x="134.475" y="426.335" width="35.8599" height="33.8677"/>
 <rect x="263.969" y="426.335" width="49.8055" height="29.8833"/>
</g>
<g style="fill:rgb(0,0,0);">
 <rect x="329.712" y="426.335" width="1.99222" height="5.97665"/>
 <rect x="489.089" y="426.335" width="21.9144" height="21.9144"/>
</g>
<g style="fill:rgb(229,229,229);">
 <rect x="417.37" y="428.327" width="47.8132" height="1.99222"/>
 <rect x="471.16" y="428.327" width="9.96106" height="1.99222"/>
</g>
<g style="fill:rgb(0,0,0);">
 <rect x="487.097" y="428.327" width="23.9066" height="23.9066"/>
 <rect x="12.9494" y="430.319" width="29.8833" height="7.96887"/>
</g>
<rect x="313.774" y="430.319" width="1.992218" height="37.852142" style="fill:rgb(229,229,229);" />
<rect x="327.72" y="430.319" width="3.984436" height="1.992218" style="fill:rgb(0,0,0);" />
<g style="fill:rgb(229,229,229);">
 <rect x="421.354" y="430.319" width="1.99225" height="1.99222"/>
 <rect x="429.323" y="430.319" width="29.8833" height="9.96109"/>
 <rect x="459.206" y="430.319" width="1.99219" height="3.98444"/>
 <rect x="461.198" y="430.319" width="1.99225" height="1.99222"/>
 <rect x="473.152" y="430.319" width="5.97668" height="1.99222"/>
 <rect x="475.144" y="432.311" width="1.99219" height="1.99222"/>
</g>
<rect x="485.105" y="432.311" width="25.898865" height="23.906616" style="fill:rgb(0,0,0);" />
<rect x="427.331" y="434.303" width="31.875488" height="3.984436" style="fill:rgb(229,229,229);" />
<g style="fill:rgb(0,0,0);">
 <rect x="483.113" y="434.303" width="27.8911" height="21.9144"/>
 <rect x="481.121" y="436.296" width="29.8833" height="19.9222"/>
 <rect x="14.9416" y="438.288" width="23.9066" height="33.8677"/>
 <rect x="60.7626" y="438.288" width="23.9066" height="27.8911"/>
 <rect x="389.479" y="438.288" width="1.99225" height="31.8755"/>
</g>
<rect x="459.206" y="438.288" width="1.9921875" height="1.992218" style="fill:rgb(229,229,229);" />
<g style="fill:rgb(0,0,0);">
 <rect x="479.128" y="438.288" width="31.8755" height="17.93"/>
 <rect x="387.486" y="440.28" width="5.97662" height="27.8911"/>
</g>
<rect x="433.307" y="440.28" width="25.898865" height="1.992218" style="fill:rgb(229,229,229);" />
<g style="fill:rgb(0,0,0);">
 <rect x="477.136" y="440.28" width="33.8677" height="15.9377"/>
 <rect x="385.494" y="442.272" width="9.96112" height="23.9066"/>
</g>
<rect x="435.3" y="442.272" width="23.906616" height="1.992218" style="fill:rgb(229,229,229);" />
<g style="fill:rgb(0,0,0);">
 <rect x="473.152" y="442.272" width="1.99225" height="13.9455"/>
 <rect x="383.502" y="444.265" width="15.9377" height="19.9222"/>
</g>
<g style="fill:rgb(229,229,229);">
 <rect x="437.292" y="444.265" width="7.96887" height="1.99222"/>
 <rect x="451.237" y="444.265" width="3.98444" height="3.98444"/>
 <rect x="455.222" y="444.265" width="1.99219" height="1.99222"/>
</g>
<g style="fill:rgb(0,0,0);">
 <rect x="471.16" y="444.265" width="39.8444" height="11.9533"/>
 <rect x="381.51" y="446.257" width="19.9221" height="17.93"/>
</g>
<rect x="439.284" y="446.257" width="3.984436" height="1.992218" style="fill:rgb(229,229,229);" />
<g style="fill:rgb(0,0,0);">
 <rect x="469.167" y="446.257" width="41.8366" height="9.96109"/>
 <rect x="84.6693" y="448.249" width="9.96109" height="11.9533"/>
 <rect x="94.6304" y="448.249" width="5.97665" height="7.96887"/>
 <rect x="100.607" y="448.249" width="3.98444" height="5.97665"/>
 <rect x="104.591" y="448.249" width="1.99222" height="3.98444"/>
</g>
<rect x="108.576" y="448.249" width="207.19066" height="1.992218" style="fill:rgb(229,229,229);" />
<rect x="401.432" y="448.249" width="1.9922485" height="31.875488" style="fill:rgb(0,0,0);" />
<rect x="451.237" y="448.249" width="1.9921875" height="1.992218" style="fill:rgb(229,229,229);" />
<rect x="467.175" y="448.249" width="43.828796" height="7.9688721" style="fill:rgb(0,0,0);" />
<rect x="114.553" y="450.241" width="201.214" height="1.992218" style="fill:rgb(229,229,229);" />
<g style="fill:rgb(0,0,0);">
 <rect x="379.518" y="450.241" width="25.8988" height="11.9533"/>
 <rect x="465.183" y="450.241" width="7.96887" height="7.96887"/>
 <rect x="12.9494" y="452.233" width="27.8911" height="15.9377"/>
 <rect x="58.7704" y="452.233" width="45.821" height="1.99222"/>
</g>
<rect x="126.506" y="452.233" width="33.867691" height="9.9610901" style="fill:rgb(229,229,229);" />
<g style="fill:rgb(0,0,0);">
 <rect x="377.525" y="452.233" width="29.8833" height="7.96887"/>
 <rect x="463.191" y="452.233" width="5.97662" height="7.96887"/>
 <rect x="375.533" y="454.226" width="35.8599" height="3.98444"/>
 <rect x="94.6304" y="456.218" width="1.99222" height="1.99222"/>
</g>
<g style="fill:rgb(229,229,229);">
 <rect x="210.179" y="456.218" width="15.9377" height="7.96887"/>
 <rect x="226.117" y="456.218" width="3.98444" height="3.98444"/>
 <rect x="230.101" y="456.218" width="1.99222" height="1.99222"/>
 <rect x="246.039" y="456.218" width="37.8521" height="1.99222"/>
 <rect x="297.837" y="456.218" width="17.93" height="1.99222"/>
</g>
<g style="fill:rgb(0,0,0);">
 <rect x="411.393" y="456.218" width="1.99219" height="31.8755"/>
 <rect x="461.198" y="456.218" width="5.97668" height="7.96887"/>
 <rect x="491.082" y="456.218" width="19.9222" height="1.99222"/>
</g>
<g style="fill:rgb(229,229,229);">
 <rect x="208.187" y="458.21" width="17.93" height="5.97665"/>
 <rect x="248.031" y="458.21" width="1.99222" height="5.97665"/>
 <rect x="256" y="458.21" width="27.8911" height="1.99222"/>
</g>
<g style="fill:rgb(0,0,0);">
 <rect x="407.409" y="458.21" width="7.96887" height="27.8911"/>
 <rect x="459.206" y="458.21" width="5.97662" height="9.96109"/>
 <rect x="493.074" y="458.21" width="17.93" height="1.99222"/>
 <rect x="84.6693" y="460.202" width="1.99222" height="3.98444"/>
 <rect x="86.6615" y="460.202" width="3.98444" height="1.99222"/>
</g>
<g style="fill:rgb(229,229,229);">
 <rect x="166.35" y="460.202" width="1.99222" height="1.99222"/>
 <rect x="178.303" y="460.202" width="49.8055" height="1.99222"/>
 <rect x="246.039" y="460.202" width="5.97665" height="3.98444"/>
 <rect x="257.992" y="460.202" width="13.9455" height="3.98444"/>
 <rect x="271.938" y="460.202" width="7.96887" height="1.99222"/>
 <rect x="281.899" y="460.202" width="1.99222" height="3.98444"/>
</g>
<g style="fill:rgb(0,0,0);">
 <rect x="405.416" y="460.202" width="11.9533" height="23.9066"/>
 <rect x="457.214" y="460.202" width="7.96887" height="7.96887"/>
 <rect x="495.066" y="460.202" width="15.9377" height="1.99222"/>
</g>
<g style="fill:rgb(229,229,229);">
 <rect x="128.498" y="462.195" width="5.97665" height="7.96887"/>
 <rect x="134.475" y="462.195" width="5.97665" height="5.97665"/>
 <rect x="140.451" y="462.195" width="17.93" height="1.99222"/>
 <rect x="192.249" y="462.195" width="15.9377" height="3.98444"/>
 <rect x="252.016" y="462.195" width="1.99222" height="1.99222"/>
 <rect x="275.922" y="462.195" width="7.96887" height="1.99222"/>
</g>
<g style="fill:rgb(0,0,0);">
 <rect x="403.424" y="462.195" width="15.9377" height="19.9222"/>
 <rect x="455.222" y="462.195" width="7.96887" height="49.8055"/>
 <rect x="497.058" y="462.195" width="13.9456" height="1.99222"/>
 <rect x="0.996109" y="464.187" width="3.98444" height="3.98444"/>
</g>
<g style="fill:rgb(229,229,229);">
 <rect x="188.265" y="464.187" width="19.9222" height="1.99222"/>
 <rect x="305.805" y="464.187" width="9.96109" height="1.99222"/>
</g>
<g style="fill:rgb(0,0,0);">
 <rect x="395.455" y="464.187" width="25.8988" height="11.9533"/>
 <rect x="453.23" y="464.187" width="9.96112" height="47.8132"/>
 <rect x="499.051" y="464.187" width="11.9533" height="11.9533"/>
 <rect x="58.7704" y="466.179" width="21.9144" height="1.99222"/>
</g>
<g style="fill:rgb(229,229,229);">
 <rect x="198.226" y="466.179" width="3.98444" height="1.99222"/>
 <rect x="307.798" y="466.179" width="7.96887" height="1.99222"/>
</g>
<g style="fill:rgb(0,0,0);">
 <rect x="393.463" y="466.179" width="31.8755" height="7.96887"/>
 <rect x="451.237" y="466.179" width="11.9533" height="45.821"/>
 <rect x="60.7626" y="468.171" width="13.9455" height="29.8833"/>
 <rect x="74.7082" y="468.171" width="1.99222" height="1.99222"/>
</g>
<rect x="138.459" y="468.171" width="1.992218" height="1.992218" style="fill:rgb(229,229,229);" />
<rect x="391.471" y="468.171" width="35.859924" height="3.984436" style="fill:rgb(0,0,0);" />
<rect x="128.498" y="470.163" width="3.984436" height="3.984436" style="fill:rgb(229,229,229);" />
<g style="fill:rgb(0,0,0);">
 <rect x="210.179" y="470.163" width="9.96109" height="27.8911"/>
 <rect x="427.331" y="470.163" width="1.99219" height="7.96887"/>
 <rect x="449.245" y="470.163" width="13.9456" height="41.8366"/>
 <rect x="208.187" y="472.156" width="11.9533" height="25.8988"/>
 <rect x="425.339" y="472.156" width="3.98444" height="5.97665"/>
 <rect x="429.323" y="472.156" width="1.99225" height="3.98444"/>
 <rect x="447.253" y="472.156" width="15.9377" height="39.8444"/>
 <rect x="14.9416" y="474.148" width="21.9144" height="37.8521"/>
 <rect x="74.7082" y="474.148" width="1.99222" height="23.9066"/>
</g>
<rect x="130.49" y="474.148" width="1.992218" height="3.984436" style="fill:rgb(229,229,229);" />
<g style="fill:rgb(0,0,0);">
 <rect x="309.79" y="474.148" width="9.96109" height="23.9066"/>
 <rect x="421.354" y="474.148" width="5.97668" height="7.96887"/>
 <rect x="445.261" y="474.148" width="17.93" height="37.8521"/>
 <rect x="319.751" y="476.14" width="1.99222" height="27.8911"/>
 <rect x="399.44" y="476.14" width="29.8832" height="1.99222"/>
 <rect x="443.268" y="476.14" width="19.9222" height="35.8599"/>
 <rect x="499.051" y="476.14" width="11.9533" height="11.9533"/>
 <rect x="76.7004" y="478.132" width="1.99222" height="19.9222"/>
 <rect x="206.195" y="478.132" width="13.9455" height="19.9222"/>
 <rect x="321.743" y="478.132" width="1.99222" height="25.8988"/>
 <rect x="419.362" y="478.132" width="5.97662" height="5.97665"/>
 <rect x="441.276" y="478.132" width="23.9066" height="33.8677"/>
 <rect x="78.6926" y="480.125" width="1.99222" height="17.93"/>
 <rect x="323.735" y="480.125" width="1.99222" height="23.9066"/>
 <rect x="0.996109" y="482.117" width="3.98444" height="17.93"/>
 <rect x="12.9494" y="482.117" width="23.9066" height="17.93"/>
 <rect x="38.8483" y="482.117" width="3.98444" height="15.9377"/>
 <rect x="56.7782" y="482.117" width="23.9066" height="13.9455"/>
 <rect x="204.202" y="482.117" width="15.9377" height="15.9377"/>
 <rect x="325.728" y="482.117" width="31.8755" height="15.9377"/>
 <rect x="357.603" y="482.117" width="7.96887" height="1.99222"/>
 <rect x="417.37" y="482.117" width="3.98444" height="5.97665"/>
 <rect x="439.284" y="482.117" width="25.8988" height="29.8833"/>
 <rect x="497.058" y="482.117" width="13.9456" height="13.9455"/>
 <rect x="80.6848" y="484.109" width="1.99222" height="13.9455"/>
 <rect x="415.377" y="484.109" width="3.98444" height="5.97665"/>
 <rect x="421.354" y="484.109" width="1.99225" height="1.99222"/>
 <rect x="437.292" y="484.109" width="27.8911" height="27.8911"/>
 <rect x="465.183" y="484.109" width="1.99225" height="27.8911"/>
 <rect x="495.066" y="484.109" width="15.9377" height="15.9377"/>
 <rect x="413.385" y="486.101" width="5.97668" height="3.98444"/>
 <rect x="435.3" y="486.101" width="25.8988" height="25.8988"/>
 <rect x="467.175" y="486.101" width="1.99219" height="25.8988"/>
 <rect x="493.074" y="486.101" width="17.93" height="17.93"/>
 <rect x="82.677" y="488.093" width="1.99222" height="9.96109"/>
 <rect x="202.21" y="488.093" width="17.93" height="9.96109"/>
 <rect x="433.307" y="488.093" width="23.9066" height="23.9066"/>
 <rect x="469.167" y="488.093" width="3.98444" height="23.9066"/>
 <rect x="491.082" y="488.093" width="19.9222" height="19.9222"/>
 <rect x="246.039" y="490.086" width="37.8521" height="7.96887"/>
 <rect x="375.533" y="490.086" width="1.99222" height="13.9455"/>
 <rect x="415.377" y="490.086" width="1.99219" height="1.99222"/>
 <rect x="431.315" y="490.086" width="21.9144" height="21.9144"/>
 <rect x="473.152" y="490.086" width="3.98444" height="21.9144"/>
 <rect x="485.105" y="490.086" width="21.9144" height="21.9144"/>
 <rect x="84.6693" y="492.078" width="1.99222" height="5.97665"/>
 <rect x="200.218" y="492.078" width="9.96109" height="13.9455"/>
 <rect x="377.525" y="492.078" width="1.99222" height="19.9222"/>
 <rect x="429.323" y="492.078" width="19.9222" height="19.9222"/>
 <rect x="477.136" y="492.078" width="19.9222" height="19.9222"/>
 <rect x="379.518" y="494.07" width="1.99222" height="17.93"/>
 <rect x="58.7704" y="496.062" width="27.8911" height="1.99222"/>
 <rect x="357.603" y="496.062" width="7.96887" height="7.96887"/>
 <rect x="381.51" y="496.062" width="1.99222" height="15.9377"/>
 <rect x="427.331" y="496.062" width="15.9377" height="15.9377"/>
 <rect x="142.444" y="498.054" width="33.8677" height="1.99222"/>
 <rect x="198.226" y="498.054" width="11.9533" height="7.96887"/>
 <rect x="256" y="498.054" width="23.9066" height="7.96887"/>
 <rect x="279.907" y="498.054" width="3.98444" height="5.97665"/>
 <rect x="325.728" y="498.054" width="11.9533" height="5.97665"/>
 <rect x="351.626" y="498.054" width="13.9455" height="5.97665"/>
 <rect x="383.502" y="498.054" width="1.99219" height="13.9455"/>
 <rect x="425.339" y="498.054" width="13.9456" height="13.9455"/>
 <rect x="144.436" y="500.047" width="31.8755" height="5.97665"/>
 <rect x="385.494" y="500.047" width="3.98444" height="11.9533"/>
 <rect x="423.346" y="500.047" width="11.9533" height="11.9533"/>
 <rect x="190.257" y="502.039" width="3.98444" height="3.98444"/>
 <rect x="196.233" y="502.039" width="13.9455" height="3.98444"/>
 <rect x="389.479" y="502.039" width="1.99225" height="9.96109"/>
 <rect x="421.354" y="502.039" width="9.96112" height="9.96109"/>
 <rect x="142.444" y="504.031" width="33.8677" height="1.99222"/>
 <rect x="194.241" y="504.031" width="15.9377" height="1.99222"/>
 <rect x="391.471" y="504.031" width="1.99219" height="7.96887"/>
 <rect x="419.362" y="504.031" width="7.96887" height="7.96887"/>
 <rect x="393.463" y="506.023" width="1.99225" height="5.97665"/>
 <rect x="56.7782" y="508.016" width="3.98444" height="3.98444"/>
 <rect x="60.7626" y="508.016" width="3.98444" height="3.98444"/>
 <rect x="64.7471" y="508.016" width="3.98444" height="3.98444"/>
 <rect x="68.7315" y="508.016" width="3.98444" height="3.98444"/>
 <rect x="72.716" y="508.016" width="3.98444" height="3.98444"/>
 <rect x="76.7004" y="508.016" width="3.98444" height="3.98444"/>
 <rect x="80.6848" y="508.016" width="3.98444" height="3.98444"/>
 <rect x="84.6693" y="508.016" width="3.98444" height="3.98444"/>
 <rect x="88.6537" y="508.016" width="3.98444" height="3.98444"/>
 <rect x="92.6381" y="508.016" width="3.98444" height="3.98444"/>
 <rect x="395.455" y="508.016" width="1.99219" height="3.98444"/>
 <rect x="417.37" y="508.016" width="3.98444" height="3.98444"/>
 <rect x="507.019" y="508.016" width="3.98444" height="3.98444"/>
 <rect x="399.44" y="510.008" width="1.99219" height="1.99222"/>
 <rect x="415.377" y="510.008" width="1.99219" height="1.99222"/>
</g>

</svg>